<svg width="35" height="35" viewBox="0 0 35 35" fill="none" xmlns="http://www.w3.org/2000/svg">
<g clip-path="url(#clip0_17_11)">
<path d="M20.7808 3.28125C20.7808 4.15149 20.4351 4.98609 19.8198 5.60144C19.2044 6.2168 18.3698 6.5625 17.4996 6.5625C16.6294 6.5625 15.7948 6.2168 15.1794 5.60144C14.5641 4.98609 14.2183 4.15149 14.2183 3.28125C14.2183 2.41101 14.5641 1.57641 15.1794 0.961056C15.7948 0.345702 16.6294 0 17.4996 0C18.3698 0 19.2044 0.345702 19.8198 0.961056C20.4351 1.57641 20.7808 2.41101 20.7808 3.28125ZM14.0871 8.2075C14.2408 8.03438 14.4295 7.89576 14.6406 7.80075C14.8517 7.70574 15.0806 7.6565 15.3121 7.65625H18.473C20.0962 7.65625 21.3605 9.06281 21.1921 10.675L20.2515 19.6066C20.2209 19.9011 20.1563 20.191 20.059 20.4706L19.3633 22.4525L19.8293 22.9819C19.9299 23.0972 20.0138 23.2261 20.0787 23.3647L24.4537 32.6616C24.5519 32.8573 24.6101 33.0707 24.6245 33.2893C24.639 33.5078 24.6096 33.727 24.538 33.934C24.4664 34.141 24.3541 34.3316 24.2077 34.4945C24.0613 34.6574 23.8838 34.7893 23.6856 34.8825C23.4873 34.9757 23.2725 35.0283 23.0536 35.0371C22.8348 35.0459 22.6164 35.0108 22.4113 34.9339C22.2062 34.857 22.0187 34.7398 21.8596 34.5892C21.7005 34.4386 21.5733 34.2577 21.4852 34.0572L17.2065 24.9703L13.5315 20.7681C13.2486 20.4468 13.1026 20.0275 13.1246 19.6L13.4265 13.8841L12.4749 14.9537L11.4599 21.0481C11.3886 21.4774 11.1496 21.8608 10.7955 22.1139C10.4415 22.3671 10.0014 22.4692 9.5721 22.3978C9.14278 22.3265 8.75939 22.0875 8.50628 21.7334C8.25316 21.3794 8.15105 20.9393 8.22241 20.51L9.31616 13.9475C9.36744 13.6424 9.50394 13.358 9.70991 13.1272L14.0849 8.20531L14.0871 8.2075Z" fill="#0FA958"/>
<path d="M13.6714 25.6922V22.5903L16.3052 25.5981L16.8761 26.7444C16.8188 26.9268 16.7299 27.0978 16.6136 27.2497L11.1449 34.3591C10.8798 34.7043 10.4884 34.93 10.0568 34.9866C9.62522 35.0432 9.18883 34.9261 8.84364 34.6609C8.49844 34.3958 8.27271 34.0044 8.2161 33.5728C8.15948 33.1413 8.27663 32.7049 8.54176 32.3597L13.6714 25.6922ZM22.9027 16.4719L21.8221 15.3912L22.2705 11.3597C22.2757 11.3109 22.2801 11.2621 22.2836 11.2131L24.7424 13.6719H27.8924C28.3275 13.6719 28.7448 13.8447 29.0525 14.1524C29.3602 14.4601 29.533 14.8774 29.533 15.3125C29.533 15.7476 29.3602 16.1649 29.0525 16.4726C28.7448 16.7803 28.3275 16.9531 27.8924 16.9531H24.0621C23.8463 16.9532 23.6327 16.9108 23.4334 16.8282C23.234 16.7456 23.053 16.6245 22.9005 16.4719H22.9027Z" fill="#0FA958"/>
</g>
<defs>
<clipPath id="clip0_17_11">
<rect width="35" height="35" fill="white"/>
</clipPath>
</defs>
</svg>
