<svg width="43" height="43" viewBox="0 0 43 43" fill="none" xmlns="http://www.w3.org/2000/svg">
<path d="M17.9167 4.47925C20.4214 4.47915 22.8762 5.1791 25.0043 6.50011C27.1323 7.82112 28.8488 9.71061 29.9599 11.9553C31.0711 14.2001 31.5328 16.7107 31.2929 19.2039C31.053 21.6971 30.121 24.0736 28.6021 26.0652L37.1 34.5667C37.4214 34.8891 37.6079 35.3218 37.6218 35.7768C37.6357 36.2318 37.4759 36.675 37.1748 37.0164C36.8738 37.3578 36.454 37.5719 36.0009 37.615C35.5477 37.6582 35.0951 37.5273 34.735 37.2488L34.5666 37.1001L26.0652 28.6022C24.3684 29.896 22.388 30.7671 20.2878 31.1435C18.1876 31.5199 16.0279 31.3908 13.9875 30.7668C11.9471 30.1428 10.0846 29.0418 8.55421 27.5551C7.02378 26.0684 5.86938 24.2386 5.18655 22.2171C4.50372 20.1956 4.31208 18.0406 4.62749 15.9303C4.9429 13.8201 5.7563 11.8153 7.00037 10.0818C8.24445 8.34837 9.88343 6.93608 11.7817 5.96183C13.68 4.98757 15.783 4.47936 17.9167 4.47925ZM17.9167 8.06258C15.3032 8.06258 12.7967 9.10079 10.9487 10.9488C9.10069 12.7968 8.06248 15.3033 8.06248 17.9167C8.06248 20.5302 9.10069 23.0367 10.9487 24.8847C12.7967 26.7327 15.3032 27.7709 17.9167 27.7709C20.5301 27.7709 23.0366 26.7327 24.8846 24.8847C26.7326 23.0367 27.7708 20.5302 27.7708 17.9167C27.7708 15.3033 26.7326 12.7968 24.8846 10.9488C23.0366 9.10079 20.5301 8.06258 17.9167 8.06258Z" fill="#0FA958"/>
</svg>
