<svg width="54" height="54" viewBox="0 0 54 54" fill="none" xmlns="http://www.w3.org/2000/svg">
<path d="M38.439 35.577C40.5549 33.3414 41.9694 30.5347 42.5075 27.504C43.0456 24.4732 42.6838 21.3512 41.4669 18.5238C40.2499 15.6964 38.2311 13.2876 35.66 11.5951C33.0889 9.90256 30.0782 9.00057 27 9.00057C23.9218 9.00057 20.9111 9.90256 18.34 11.5951C15.7689 13.2876 13.7501 15.6964 12.5332 18.5238C11.3162 21.3512 10.9544 24.4732 11.4925 27.504C12.0307 30.5347 13.4451 33.3414 15.561 35.577C16.7753 33.6394 18.4621 32.0422 20.463 30.9355C22.464 29.8288 24.7134 29.2488 27 29.25C29.2866 29.2488 31.5361 29.8288 33.537 30.9355C35.538 32.0422 37.2248 33.6394 38.439 35.577ZM27 53.388L12.681 39.069C9.84902 36.237 7.92042 32.6288 7.13909 28.7007C6.35776 24.7726 6.75879 20.701 8.29147 17.0008C9.82415 13.3006 12.4196 10.138 15.7497 7.91291C19.0798 5.68782 22.9949 4.50018 27 4.50018C31.0051 4.50018 34.9202 5.68782 38.2503 7.91291C41.5804 10.138 44.1759 13.3006 45.7085 17.0008C47.2412 20.701 47.6423 24.7726 46.8609 28.7007C46.0796 32.6288 44.151 36.237 41.319 39.069L27 53.388ZM27 27C25.2098 27 23.4929 26.2888 22.227 25.023C20.9612 23.7571 20.25 22.0402 20.25 20.25C20.25 18.4598 20.9612 16.7429 22.227 15.477C23.4929 14.2112 25.2098 13.5 27 13.5C28.7902 13.5 30.5071 14.2112 31.773 15.477C33.0389 16.7429 33.75 18.4598 33.75 20.25C33.75 22.0402 33.0389 23.7571 31.773 25.023C30.5071 26.2888 28.7902 27 27 27Z" fill="#F8F8F8"/>
</svg>
